<svg version="1.1" xmlns="http://www.w3.org/2000/svg" xmlns:xlink="http://www.w3.org/1999/xlink" width="1641.55078125" height="733"><defs/><g><g transform="translate(-102,-78) scale(1,1)"><rect fill="#C0C0C0" stroke="none" x="863" y="103" width="149.61962890625" height="44" opacity="0.2"/></g><g transform="translate(-102,-78) scale(1,1)"><rect fill="#ffffff" stroke="none" x="856" y="96" width="149.61962890625" height="44"/></g><g transform="translate(-102,-78) scale(1,1)"><path fill="none" stroke="#000000" d="M 856 96 L 1005.61962890625 96 L 1005.61962890625 140 L 856 140 L 856 96 Z Z" stroke-miterlimit="10"/></g><g transform="translate(-102,-78) scale(1,1)"><path fill="none" stroke="#000000" d="M 856 121 L 1005.61962890625 121" stroke-miterlimit="10"/></g><g transform="translate(-102,-78) scale(1,1)"><path fill="none" stroke="#000000" d="M 856 131 L 1005.61962890625 131" stroke-miterlimit="10"/></g><g transform="translate(-102,-78) scale(1,1)"><g><path fill="none" stroke="none"/><text fill="#000000" stroke="none" font-family="Arial" font-size="13px" font-style="normal" font-weight="bold" text-decoration="none" x="868.30126953125" y="115.5">NewSubConnOptions</text></g></g><g transform="translate(-102,-78) scale(1,1)"><path fill="none" stroke="#000000" d="M 808.7839261048841 527.639207437317 A 11.5 11.5 0 0 1 805.2160738951159 550.360792562683" stroke-miterlimit="10"/></g><g transform="translate(-102,-78) scale(1,1)"><path fill="none" stroke="#000000" d="M 795.6564698759304 537.1094116459883 A 11.5 11.5 0 0 1 818.3435301240696 540.8905883540117" stroke-miterlimit="10"/></g><g transform="translate(-102,-78) scale(1,1)"><path fill="none" stroke="#000000" d="M 688 576 L 927.1279296875 576" stroke-miterlimit="10"/></g><g transform="translate(-102,-78) scale(1,1)"><g><path fill="none" stroke="none"/><text fill="#000000" stroke="none" font-family="Arial" font-size="13px" font-style="normal" font-weight="bold" text-decoration="none" x="780.45947265625" y="570.5">SubConn</text></g></g><g transform="translate(-102,-78) scale(1,1)"><g><path fill="none" stroke="none"/><text fill="#000000" stroke="none" font-family="Arial" font-size="13px" font-style="normal" font-weight="normal" text-decoration="none" x="693" y="593.5">+UpdateAddresses(resolver.Address)</text></g></g><g transform="translate(-102,-78) scale(1,1)"><g><path fill="none" stroke="none"/><text fill="#000000" stroke="none" font-family="Arial" font-size="13px" font-style="normal" font-weight="normal" text-decoration="none" x="693" y="608.5">+Connect()</text></g></g><g transform="translate(-102,-78) scale(1,1)"><rect fill="#C0C0C0" stroke="none" x="575" y="95" width="244.447265625" height="57" opacity="0.2"/></g><g transform="translate(-102,-78) scale(1,1)"><rect fill="#ffffff" stroke="none" x="568" y="88" width="244.447265625" height="57"/></g><g transform="translate(-102,-78) scale(1,1)"><path fill="none" stroke="#000000" d="M 568 88 L 812.447265625 88 L 812.447265625 145 L 568 145 L 568 88 Z Z" stroke-miterlimit="10"/></g><g transform="translate(-102,-78) scale(1,1)"><path fill="none" stroke="#000000" d="M 568 113 L 812.447265625 113" stroke-miterlimit="10"/></g><g transform="translate(-102,-78) scale(1,1)"><path fill="none" stroke="#000000" d="M 568 136 L 812.447265625 136" stroke-miterlimit="10"/></g><g transform="translate(-102,-78) scale(1,1)"><g><path fill="none" stroke="none"/><text fill="#000000" stroke="none" font-family="Arial" font-size="13px" font-style="normal" font-weight="bold" text-decoration="none" x="675.04638671875" y="107.5">State</text></g></g><g transform="translate(-102,-78) scale(1,1)"><g><path fill="none" stroke="none"/><text fill="#000000" stroke="none" font-family="Arial" font-size="13px" font-style="normal" font-weight="normal" text-decoration="none" x="573" y="130.5">+ConnectivityState: connectivity.State</text></g></g><g transform="translate(-102,-78) scale(1,1)"><rect fill="#C0C0C0" stroke="none" x="119" y="567" width="169.88134765625" height="72" opacity="0.2"/></g><g transform="translate(-102,-78) scale(1,1)"><rect fill="#ffffff" stroke="none" x="112" y="560" width="169.88134765625" height="72"/></g><g transform="translate(-102,-78) scale(1,1)"><path fill="none" stroke="#000000" d="M 112 560 L 281.88134765625 560 L 281.88134765625 632 L 112 632 L 112 560 Z Z" stroke-miterlimit="10"/></g><g transform="translate(-102,-78) scale(1,1)"><path fill="none" stroke="#000000" d="M 112 585 L 281.88134765625 585" stroke-miterlimit="10"/></g><g transform="translate(-102,-78) scale(1,1)"><path fill="none" stroke="#000000" d="M 112 623 L 281.88134765625 623" stroke-miterlimit="10"/></g><g transform="translate(-102,-78) scale(1,1)"><g><path fill="none" stroke="none"/><text fill="#000000" stroke="none" font-family="Arial" font-size="13px" font-style="normal" font-weight="bold" text-decoration="none" x="173.8193359375" y="579.5">PickInfo</text></g></g><g transform="translate(-102,-78) scale(1,1)"><g><path fill="none" stroke="none"/><text fill="#000000" stroke="none" font-family="Arial" font-size="13px" font-style="normal" font-weight="normal" text-decoration="none" x="117" y="602.5">+FullMethodName: string</text></g></g><g transform="translate(-102,-78) scale(1,1)"><g><path fill="none" stroke="none"/><text fill="#000000" stroke="none" font-family="Arial" font-size="13px" font-style="normal" font-weight="normal" text-decoration="none" x="117" y="617.5">+Ctx: context.Context</text></g></g><g transform="translate(-102,-78) scale(1,1)"><rect fill="#C0C0C0" stroke="none" x="351" y="543" width="139.2158203125" height="72" opacity="0.2"/></g><g transform="translate(-102,-78) scale(1,1)"><rect fill="#ffffff" stroke="none" x="344" y="536" width="139.2158203125" height="72"/></g><g transform="translate(-102,-78) scale(1,1)"><path fill="none" stroke="#000000" d="M 344 536 L 483.2158203125 536 L 483.2158203125 608 L 344 608 L 344 536 Z Z" stroke-miterlimit="10"/></g><g transform="translate(-102,-78) scale(1,1)"><path fill="none" stroke="#000000" d="M 344 561 L 483.2158203125 561" stroke-miterlimit="10"/></g><g transform="translate(-102,-78) scale(1,1)"><path fill="none" stroke="#000000" d="M 344 599 L 483.2158203125 599" stroke-miterlimit="10"/></g><g transform="translate(-102,-78) scale(1,1)"><g><path fill="none" stroke="none"/><text fill="#000000" stroke="none" font-family="Arial" font-size="13px" font-style="normal" font-weight="bold" text-decoration="none" x="382.904296875" y="555.5">PickResult</text></g></g><g transform="translate(-102,-78) scale(1,1)"><g><path fill="none" stroke="none"/><text fill="#000000" stroke="none" font-family="Arial" font-size="13px" font-style="normal" font-weight="normal" text-decoration="none" x="349" y="578.5">+SubConn: SubConn</text></g></g><g transform="translate(-102,-78) scale(1,1)"><g><path fill="none" stroke="none"/><text fill="#000000" stroke="none" font-family="Arial" font-size="13px" font-style="normal" font-weight="normal" text-decoration="none" x="349" y="593.5">+Done</text></g></g><g transform="translate(-102,-78) scale(1,1)"><path fill="none" stroke="#000000" d="M 484 572 L 687 571" stroke-miterlimit="10"/></g><g transform="translate(-102,-78) scale(1,1)"><path fill="none" stroke="#000000" d="M 676.8581847357011 575.2595285120344 L 687 571 L 676.816712157556 566.84059514859" stroke-miterlimit="10"/></g><g transform="translate(-102,-78) scale(1,1)"><rect fill="#C0C0C0" stroke="none" x="255" y="367" width="149.32763671875" height="117" opacity="0.2"/></g><g transform="translate(-102,-78) scale(1,1)"><rect fill="#ffffff" stroke="none" x="248" y="360" width="149.32763671875" height="117"/></g><g transform="translate(-102,-78) scale(1,1)"><path fill="none" stroke="#000000" d="M 248 360 L 397.32763671875 360 L 397.32763671875 477 L 248 477 L 248 360 Z Z" stroke-miterlimit="10"/></g><g transform="translate(-102,-78) scale(1,1)"><path fill="none" stroke="#000000" d="M 248 385 L 397.32763671875 385" stroke-miterlimit="10"/></g><g transform="translate(-102,-78) scale(1,1)"><path fill="none" stroke="#000000" d="M 248 468 L 397.32763671875 468" stroke-miterlimit="10"/></g><g transform="translate(-102,-78) scale(1,1)"><g><path fill="none" stroke="none"/><text fill="#000000" stroke="none" font-family="Arial" font-size="13px" font-style="normal" font-weight="bold" text-decoration="none" x="296.282958984375" y="379.5">DoneInfo</text></g></g><g transform="translate(-102,-78) scale(1,1)"><g><path fill="none" stroke="none"/><text fill="#000000" stroke="none" font-family="Arial" font-size="13px" font-style="normal" font-weight="normal" text-decoration="none" x="253" y="402.5">+Err: error</text></g></g><g transform="translate(-102,-78) scale(1,1)"><g><path fill="none" stroke="none"/><text fill="#000000" stroke="none" font-family="Arial" font-size="13px" font-style="normal" font-weight="normal" text-decoration="none" x="253" y="417.5">+Trailer: metadata.MD</text></g></g><g transform="translate(-102,-78) scale(1,1)"><g><path fill="none" stroke="none"/><text fill="#000000" stroke="none" font-family="Arial" font-size="13px" font-style="normal" font-weight="normal" text-decoration="none" x="253" y="432.5">+BytesSent: bool</text></g></g><g transform="translate(-102,-78) scale(1,1)"><g><path fill="none" stroke="none"/><text fill="#000000" stroke="none" font-family="Arial" font-size="13px" font-style="normal" font-weight="normal" text-decoration="none" x="253" y="447.5">+BytesReceived: bool</text></g></g><g transform="translate(-102,-78) scale(1,1)"><g><path fill="none" stroke="none"/><text fill="#000000" stroke="none" font-family="Arial" font-size="13px" font-style="normal" font-weight="normal" text-decoration="none" x="253" y="462.5">+ServerLoad: interface</text></g></g><g transform="translate(-102,-78) scale(1,1)"><path fill="none" stroke="#000000" d="M 391 535 L 357 478" stroke-miterlimit="10" stroke-dasharray="3"/></g><g transform="translate(-102,-78) scale(1,1)"><path fill="none" stroke="#000000" d="M 365.8213337671652 484.5714587854046 L 357 478 L 358.59090185642486 488.8843479953199" stroke-miterlimit="10"/></g><g transform="translate(-102,-78) scale(1,1)"><path fill="none" stroke="#000000" d="M 1240.6564698759303 476.8905883540115 A 11.5 11.5 0 0 1 1263.3435301240697 473.1094116459885" stroke-miterlimit="10"/></g><g transform="translate(-102,-78) scale(1,1)"><path fill="none" stroke="#000000" d="M 1096 512 L 1408.443359375 512" stroke-miterlimit="10"/></g><g transform="translate(-102,-78) scale(1,1)"><g><path fill="none" stroke="none"/><text fill="#000000" stroke="none" font-family="Arial" font-size="13px" font-style="normal" font-weight="bold" text-decoration="none" x="1226.567626953125" y="506.5">Balancer</text></g></g><g transform="translate(-102,-78) scale(1,1)"><g><path fill="none" stroke="none"/><text fill="#000000" stroke="none" font-family="Arial" font-size="13px" font-style="normal" font-weight="normal" text-decoration="none" x="1101" y="529.5">+UpdateClientConState(ClientConnState): error</text></g></g><g transform="translate(-102,-78) scale(1,1)"><g><path fill="none" stroke="none"/><text fill="#000000" stroke="none" font-family="Arial" font-size="13px" font-style="normal" font-weight="normal" text-decoration="none" x="1101" y="544.5">+ResolverError(error)</text></g></g><g transform="translate(-102,-78) scale(1,1)"><g><path fill="none" stroke="none"/><text fill="#000000" stroke="none" font-family="Arial" font-size="13px" font-style="normal" font-weight="normal" text-decoration="none" x="1101" y="559.5">+UpdateSubConnState(subConn, SubConnState)</text></g></g><g transform="translate(-102,-78) scale(1,1)"><g><path fill="none" stroke="none"/><text fill="#000000" stroke="none" font-family="Arial" font-size="13px" font-style="normal" font-weight="normal" text-decoration="none" x="1101" y="574.5">+Close()</text></g></g><g transform="translate(-102,-78) scale(1,1)"><rect fill="#C0C0C0" stroke="none" x="1255" y="695" width="336.462890625" height="72" opacity="0.2"/></g><g transform="translate(-102,-78) scale(1,1)"><rect fill="#ffffff" stroke="none" x="1248" y="688" width="336.462890625" height="72"/></g><g transform="translate(-102,-78) scale(1,1)"><path fill="none" stroke="#000000" d="M 1248 688 L 1584.462890625 688 L 1584.462890625 760 L 1248 760 L 1248 688 Z Z" stroke-miterlimit="10"/></g><g transform="translate(-102,-78) scale(1,1)"><path fill="none" stroke="#000000" d="M 1248 713 L 1584.462890625 713" stroke-miterlimit="10"/></g><g transform="translate(-102,-78) scale(1,1)"><path fill="none" stroke="#000000" d="M 1248 751 L 1584.462890625 751" stroke-miterlimit="10"/></g><g transform="translate(-102,-78) scale(1,1)"><g><path fill="none" stroke="none"/><text fill="#000000" stroke="none" font-family="Arial" font-size="13px" font-style="normal" font-weight="bold" text-decoration="none" x="1368.89697265625" y="707.5">ClientConnState</text></g></g><g transform="translate(-102,-78) scale(1,1)"><g><path fill="none" stroke="none"/><text fill="#000000" stroke="none" font-family="Arial" font-size="13px" font-style="normal" font-weight="normal" text-decoration="none" x="1253" y="730.5">+ResolverState: resolver.State</text></g></g><g transform="translate(-102,-78) scale(1,1)"><g><path fill="none" stroke="none"/><text fill="#000000" stroke="none" font-family="Arial" font-size="13px" font-style="normal" font-weight="normal" text-decoration="none" x="1253" y="745.5">+BalancerConfig: serviceconfig.LoadBalancingConfig</text></g></g><g transform="translate(-102,-78) scale(1,1)"><rect fill="#C0C0C0" stroke="none" x="991" y="703" width="244.447265625" height="72" opacity="0.2"/></g><g transform="translate(-102,-78) scale(1,1)"><rect fill="#ffffff" stroke="none" x="984" y="696" width="244.447265625" height="72"/></g><g transform="translate(-102,-78) scale(1,1)"><path fill="none" stroke="#000000" d="M 984 696 L 1228.447265625 696 L 1228.447265625 768 L 984 768 L 984 696 Z Z" stroke-miterlimit="10"/></g><g transform="translate(-102,-78) scale(1,1)"><path fill="none" stroke="#000000" d="M 984 721 L 1228.447265625 721" stroke-miterlimit="10"/></g><g transform="translate(-102,-78) scale(1,1)"><path fill="none" stroke="#000000" d="M 984 759 L 1228.447265625 759" stroke-miterlimit="10"/></g><g transform="translate(-102,-78) scale(1,1)"><g><path fill="none" stroke="none"/><text fill="#000000" stroke="none" font-family="Arial" font-size="13px" font-style="normal" font-weight="bold" text-decoration="none" x="1063.94189453125" y="715.5">SubConnState</text></g></g><g transform="translate(-102,-78) scale(1,1)"><g><path fill="none" stroke="none"/><text fill="#000000" stroke="none" font-family="Arial" font-size="13px" font-style="normal" font-weight="normal" text-decoration="none" x="989" y="738.5">+ConnectivityState: connectivity.State</text></g></g><g transform="translate(-102,-78) scale(1,1)"><g><path fill="none" stroke="none"/><text fill="#000000" stroke="none" font-family="Arial" font-size="13px" font-style="normal" font-weight="normal" text-decoration="none" x="989" y="753.5">+ConnectionError: error</text></g></g><g transform="translate(-102,-78) scale(1,1)"><path fill="none" stroke="#000000" d="M 1300 581 L 1386 687" stroke-miterlimit="10" stroke-dasharray="3"/></g><g transform="translate(-102,-78) scale(1,1)"><path fill="none" stroke="#000000" d="M 1376.328148154357 681.7602211997134 L 1386 687 L 1382.8660510949144 676.4558848517141" stroke-miterlimit="10"/></g><g transform="translate(-102,-78) scale(1,1)"><path fill="none" stroke="#000000" d="M 1211 581 L 1132 695" stroke-miterlimit="10" stroke-dasharray="3"/></g><g transform="translate(-102,-78) scale(1,1)"><path fill="none" stroke="#000000" d="M 1134.3285658374414 684.2492892727643 L 1132 695 L 1141.2484451518976 689.0446442362909" stroke-miterlimit="10"/></g><g transform="translate(-102,-78) scale(1,1)"><path fill="none" stroke="#000000" d="M 1095 539 L 819.06396484375 540.8943415870351" stroke-miterlimit="10"/></g><g transform="translate(-102,-78) scale(1,1)"><path fill="#C0C0C0" stroke="none" d="M 319.343017578125 738.5 C 319.343017578125 732.1487248 324.491742378125 727 330.843017578125 727 C 337.194292778125 727 342.343017578125 732.1487248 342.343017578125 738.5 C 342.343017578125 744.8512752 337.194292778125 750 330.843017578125 750 C 324.491742378125 750 319.343017578125 744.8512752 319.343017578125 738.5 Z" opacity="0.2"/></g><g transform="translate(-102,-78) scale(1,1)"><path fill="#ffffff" stroke="none" d="M 312.343017578125 731.5 C 312.343017578125 725.1487248 317.491742378125 720 323.843017578125 720 C 330.194292778125 720 335.343017578125 725.1487248 335.343017578125 731.5 C 335.343017578125 737.8512752 330.194292778125 743 323.843017578125 743 C 317.491742378125 743 312.343017578125 737.8512752 312.343017578125 731.5 Z"/></g><g transform="translate(-102,-78) scale(1,1)"><path fill="none" stroke="#000000" d="M 312.343017578125 731.5 C 312.343017578125 725.1487248 317.491742378125 720 323.843017578125 720 C 330.194292778125 720 335.343017578125 725.1487248 335.343017578125 731.5 C 335.343017578125 737.8512752 330.194292778125 743 323.843017578125 743 C 317.491742378125 743 312.343017578125 737.8512752 312.343017578125 731.5 Z" stroke-miterlimit="10"/></g><g transform="translate(-102,-78) scale(1,1)"><path fill="none" stroke="#000000" d="M 216 768 L 431.68603515625 768" stroke-miterlimit="10"/></g><g transform="translate(-102,-78) scale(1,1)"><path fill="none" stroke="#000000" d="M 216 778 L 431.68603515625 778" stroke-miterlimit="10"/></g><g transform="translate(-102,-78) scale(1,1)"><g><path fill="none" stroke="none"/><text fill="#000000" stroke="none" font-family="Arial" font-size="13px" font-style="normal" font-weight="bold" text-decoration="none" x="305.783935546875" y="762.5">Picker</text></g></g><g transform="translate(-102,-78) scale(1,1)"><g><path fill="none" stroke="none"/><text fill="#000000" stroke="none" font-family="Arial" font-size="13px" font-style="normal" font-weight="normal" text-decoration="none" x="221" y="795.5">+Picker(info: PickInfo): PickResult</text></g></g><g transform="translate(-102,-78) scale(1,1)"><path fill="none" stroke="#000000" d="M 343 719 L 395 609" stroke-miterlimit="10" stroke-dasharray="3"/></g><g transform="translate(-102,-78) scale(1,1)"><path fill="none" stroke="#000000" d="M 394.46238817131194 619.9868545781609 L 395 609 L 386.85097165416056 616.3887304064166" stroke-miterlimit="10"/></g><g transform="translate(-102,-78) scale(1,1)"><path fill="none" stroke="#000000" d="M 291 719 L 225 633" stroke-miterlimit="10" stroke-dasharray="3"/></g><g transform="translate(-102,-78) scale(1,1)"><path fill="none" stroke="#000000" d="M 234.52667705477202 638.4993112563375 L 225 633 L 227.8477776663918 643.6249782288154" stroke-miterlimit="10"/></g><g transform="translate(-102,-78) scale(1,1)"><path fill="#C0C0C0" stroke="none" d="M 1240.338623046875 242.5 C 1240.338623046875 236.1487248 1245.487347846875 231 1251.838623046875 231 C 1258.189898246875 231 1263.338623046875 236.1487248 1263.338623046875 242.5 C 1263.338623046875 248.8512752 1258.189898246875 254 1251.838623046875 254 C 1245.487347846875 254 1240.338623046875 248.8512752 1240.338623046875 242.5 Z" opacity="0.2"/></g><g transform="translate(-102,-78) scale(1,1)"><path fill="#ffffff" stroke="none" d="M 1233.338623046875 235.5 C 1233.338623046875 229.1487248 1238.487347846875 224 1244.838623046875 224 C 1251.189898246875 224 1256.338623046875 229.1487248 1256.338623046875 235.5 C 1256.338623046875 241.8512752 1251.189898246875 247 1244.838623046875 247 C 1238.487347846875 247 1233.338623046875 241.8512752 1233.338623046875 235.5 Z"/></g><g transform="translate(-102,-78) scale(1,1)"><path fill="none" stroke="#000000" d="M 1233.338623046875 235.5 C 1233.338623046875 229.1487248 1238.487347846875 224 1244.838623046875 224 C 1251.189898246875 224 1256.338623046875 229.1487248 1256.338623046875 235.5 C 1256.338623046875 241.8512752 1251.189898246875 247 1244.838623046875 247 C 1238.487347846875 247 1233.338623046875 241.8512752 1233.338623046875 235.5 Z" stroke-miterlimit="10"/></g><g transform="translate(-102,-78) scale(1,1)"><path fill="none" stroke="#000000" d="M 1080 272 L 1409.67724609375 272" stroke-miterlimit="10"/></g><g transform="translate(-102,-78) scale(1,1)"><g><path fill="none" stroke="none"/><text fill="#000000" stroke="none" font-family="Arial" font-size="13px" font-style="normal" font-weight="bold" text-decoration="none" x="1224.60546875" y="266.5">Builder</text></g></g><g transform="translate(-102,-78) scale(1,1)"><g><path fill="none" stroke="none"/><text fill="#000000" stroke="none" font-family="Arial" font-size="13px" font-style="normal" font-weight="normal" text-decoration="none" x="1085" y="289.5">+Build(cc: ClientConn, opts: BuildOptions): Balancer</text></g></g><g transform="translate(-102,-78) scale(1,1)"><g><path fill="none" stroke="none"/><text fill="#000000" stroke="none" font-family="Arial" font-size="13px" font-style="normal" font-weight="normal" text-decoration="none" x="1085" y="304.5">+Name(): string</text></g></g><g transform="translate(-102,-78) scale(1,1)"><path fill="none" stroke="#000000" d="M 1245 311 L 1250.1666666666667 464" stroke-miterlimit="10"/></g><g transform="translate(-102,-78) scale(1,1)"><path fill="none" stroke="#000000" d="M 818.5987130217222 287.5155956742363 A 11.5 11.5 0 0 1 817.4012869782778 310.4844043257637" stroke-miterlimit="10"/></g><g transform="translate(-102,-78) scale(1,1)"><path fill="none" stroke="#000000" d="M 608 336 L 1028.1123046875 336" stroke-miterlimit="10"/></g><g transform="translate(-102,-78) scale(1,1)"><g><path fill="none" stroke="none"/><text fill="#000000" stroke="none" font-family="Arial" font-size="13px" font-style="normal" font-weight="bold" text-decoration="none" x="785.89892578125" y="330.5">ClientConn</text></g></g><g transform="translate(-102,-78) scale(1,1)"><g><path fill="none" stroke="none"/><text fill="#000000" stroke="none" font-family="Arial" font-size="13px" font-style="normal" font-weight="normal" text-decoration="none" x="613" y="353.5">+NewSubConn(resolver.Address, NewSubConnOptions): SubConn</text></g></g><g transform="translate(-102,-78) scale(1,1)"><g><path fill="none" stroke="none"/><text fill="#000000" stroke="none" font-family="Arial" font-size="13px" font-style="normal" font-weight="normal" text-decoration="none" x="613" y="368.5">+RemoveSubConn(SubConn)</text></g></g><g transform="translate(-102,-78) scale(1,1)"><g><path fill="none" stroke="none"/><text fill="#000000" stroke="none" font-family="Arial" font-size="13px" font-style="normal" font-weight="normal" text-decoration="none" x="613" y="383.5">+UpdateState(State)</text></g></g><g transform="translate(-102,-78) scale(1,1)"><g><path fill="none" stroke="none"/><text fill="#000000" stroke="none" font-family="Arial" font-size="13px" font-style="normal" font-weight="normal" text-decoration="none" x="613" y="398.5">+ResolveNow(resolver.ResolveNowOptions)</text></g></g><g transform="translate(-102,-78) scale(1,1)"><g><path fill="none" stroke="none"/><text fill="#000000" stroke="none" font-family="Arial" font-size="13px" font-style="normal" font-weight="normal" text-decoration="none" x="613" y="413.5">+Target(): string</text></g></g><g transform="translate(-102,-78) scale(1,1)"><path fill="none" stroke="#000000" d="M 1079 300 L 829.55615234375 299.60245343972156" stroke-miterlimit="10"/></g><g transform="translate(-102,-78) scale(1,1)"><path fill="none" stroke="#000000" d="M 782 287 L 706 146" stroke-miterlimit="10" stroke-dasharray="3"/></g><g transform="translate(-102,-78) scale(1,1)"><path fill="none" stroke="#000000" d="M 714.5274199416751 152.94860483394478 L 706 146 L 707.1163908689159 156.94320206465187" stroke-miterlimit="10"/></g><g transform="translate(-102,-78) scale(1,1)"><path fill="none" stroke="#000000" d="M 815 420 L 808.8333333333334 528" stroke-miterlimit="10"/></g><g transform="translate(-102,-78) scale(1,1)"><path fill="none" stroke="#000000" d="M 849 287 L 919 141" stroke-miterlimit="10" stroke-dasharray="3"/></g><g transform="translate(-102,-78) scale(1,1)"><path fill="none" stroke="#000000" d="M 918.4021646529246 151.9837422082725 L 919 141 L 910.8105879737756 148.34394517032436" stroke-miterlimit="10"/></g><g transform="translate(-102,-78) scale(1,1)"><path fill="none" stroke="#000000" d="M 990 420 L 1100 463" stroke-miterlimit="10"/></g><g transform="translate(-102,-78) scale(1,1)"><rect fill="#C0C0C0" stroke="none" x="407" y="175" width="130.875" height="44" opacity="0.2"/></g><g transform="translate(-102,-78) scale(1,1)"><rect fill="#ffffff" stroke="none" x="400" y="168" width="130.875" height="44"/></g><g transform="translate(-102,-78) scale(1,1)"><path fill="none" stroke="#000000" d="M 400 168 L 530.875 168 L 530.875 212 L 400 212 L 400 168 Z Z" stroke-miterlimit="10"/></g><g transform="translate(-102,-78) scale(1,1)"><path fill="none" stroke="#000000" d="M 400 193 L 530.875 193" stroke-miterlimit="10"/></g><g transform="translate(-102,-78) scale(1,1)"><path fill="none" stroke="#000000" d="M 400 203 L 530.875 203" stroke-miterlimit="10"/></g><g transform="translate(-102,-78) scale(1,1)"><g><path fill="none" stroke="none"/><text fill="#000000" stroke="none" font-family="Arial" font-size="13px" font-style="normal" font-weight="bold" text-decoration="none" x="408.476806640625" y="187.5">ccBalancerWrapper</text></g></g><g transform="translate(-102,-78) scale(1,1)"><path fill="none" stroke="#000000" d="M 515 213 L 675 287" stroke-miterlimit="10"/></g><g transform="translate(-102,-78) scale(1,1)"><path fill="#FFFFFF" stroke="none" d="M 653.0180412519437 286.1092196686309 L 675 287 L 660.0862847183452 270.82653109262776"/></g><g transform="translate(-102,-78) scale(1,1)"><path fill="none" stroke="#000000" d="M 653.0180412519437 286.1092196686309 L 675 287 L 660.0862847183452 270.82653109262776 L 653.0180412519437 286.1092196686309" stroke-miterlimit="10"/></g><g transform="translate(-102,-78) scale(1,1)"><rect fill="#C0C0C0" stroke="none" x="1647" y="503" width="93.55078125" height="44" opacity="0.2"/></g><g transform="translate(-102,-78) scale(1,1)"><rect fill="#ffffff" stroke="none" x="1640" y="496" width="93.55078125" height="44"/></g><g transform="translate(-102,-78) scale(1,1)"><path fill="none" stroke="#000000" d="M 1640 496 L 1733.55078125 496 L 1733.55078125 540 L 1640 540 L 1640 496 Z Z" stroke-miterlimit="10"/></g><g transform="translate(-102,-78) scale(1,1)"><path fill="none" stroke="#000000" d="M 1640 521 L 1733.55078125 521" stroke-miterlimit="10"/></g><g transform="translate(-102,-78) scale(1,1)"><path fill="none" stroke="#000000" d="M 1640 531 L 1733.55078125 531" stroke-miterlimit="10"/></g><g transform="translate(-102,-78) scale(1,1)"><g><path fill="none" stroke="none"/><text fill="#000000" stroke="none" font-family="Arial" font-size="13px" font-style="normal" font-weight="bold" text-decoration="none" x="1647.0263671875" y="515.5">baseBalancer</text></g></g><g transform="translate(-102,-78) scale(1,1)"><path fill="none" stroke="#000000" d="M 1639 518 L 1409 521" stroke-miterlimit="10"/></g><g transform="translate(-102,-78) scale(1,1)"><path fill="#FFFFFF" stroke="none" d="M 1429.213816769876 512.3165898637759 L 1409 521 L 1429.4334251027897 529.1532287204936"/></g><g transform="translate(-102,-78) scale(1,1)"><path fill="none" stroke="#000000" d="M 1429.213816769876 512.3165898637759 L 1409 521 L 1429.4334251027897 529.1532287204936 L 1429.213816769876 512.3165898637759" stroke-miterlimit="10"/></g><g transform="translate(-102,-78) scale(1,1)"><rect fill="#C0C0C0" stroke="none" x="1471" y="367" width="181.3388671875" height="57" opacity="0.2"/></g><g transform="translate(-102,-78) scale(1,1)"><rect fill="#ffffff" stroke="none" x="1464" y="360" width="181.3388671875" height="57"/></g><g transform="translate(-102,-78) scale(1,1)"><path fill="none" stroke="#000000" d="M 1464 360 L 1645.3388671875 360 L 1645.3388671875 417 L 1464 417 L 1464 360 Z Z" stroke-miterlimit="10"/></g><g transform="translate(-102,-78) scale(1,1)"><path fill="none" stroke="#000000" d="M 1464 385 L 1645.3388671875 385" stroke-miterlimit="10"/></g><g transform="translate(-102,-78) scale(1,1)"><path fill="none" stroke="#000000" d="M 1464 408 L 1645.3388671875 408" stroke-miterlimit="10"/></g><g transform="translate(-102,-78) scale(1,1)"><g><path fill="none" stroke="none"/><text fill="#000000" stroke="none" font-family="Arial" font-size="13px" font-style="normal" font-weight="bold" text-decoration="none" x="1507.3349609375" y="379.5">ClientConnState</text></g></g><g transform="translate(-102,-78) scale(1,1)"><g><path fill="none" stroke="none"/><text fill="#000000" stroke="none" font-family="Arial" font-size="13px" font-style="normal" font-weight="normal" text-decoration="none" x="1469" y="402.5">+ResolverState resolver.State</text></g></g><g transform="translate(-102,-78) scale(1,1)"><path fill="none" stroke="#000000" d="M 1385 463 L 1486 418" stroke-miterlimit="10" stroke-dasharray="3"/></g><g transform="translate(-102,-78) scale(1,1)"><path fill="none" stroke="#000000" d="M 1478.430203086172 425.98111362426334 L 1486 418 L 1475.0038457048904 418.29084483516425" stroke-miterlimit="10"/></g></g></svg>