<svg version="1.1" xmlns="http://www.w3.org/2000/svg" xmlns:xlink="http://www.w3.org/1999/xlink" width="983.81591796875" height="624"><defs/><g><g transform="translate(10,-182) scale(1,1)"><rect fill="#C0C0C0" stroke="none" x="47" y="199" width="218.12353515625" height="87" opacity="0.2"/></g><g transform="translate(10,-182) scale(1,1)"><rect fill="#ffffff" stroke="none" x="40" y="192" width="218.12353515625" height="87"/></g><g transform="translate(10,-182) scale(1,1)"><path fill="none" stroke="#000000" d="M 40 192 L 258.12353515625 192 L 258.12353515625 279 L 40 279 L 40 192 Z Z" stroke-miterlimit="10"/></g><g transform="translate(10,-182) scale(1,1)"><path fill="none" stroke="#000000" d="M 40 217 L 258.12353515625 217" stroke-miterlimit="10"/></g><g transform="translate(10,-182) scale(1,1)"><path fill="none" stroke="#000000" d="M 40 270 L 258.12353515625 270" stroke-miterlimit="10"/></g><g transform="translate(10,-182) scale(1,1)"><g><path fill="none" stroke="none"/><text fill="#000000" stroke="none" font-family="Arial" font-size="13px" font-style="normal" font-weight="bold" text-decoration="none" x="125.216796875" y="211.5">Address</text></g></g><g transform="translate(10,-182) scale(1,1)"><g><path fill="none" stroke="none"/><text fill="#000000" stroke="none" font-family="Arial" font-size="13px" font-style="normal" font-weight="normal" text-decoration="none" x="45" y="234.5">+Addr: string</text></g></g><g transform="translate(10,-182) scale(1,1)"><g><path fill="none" stroke="none"/><text fill="#000000" stroke="none" font-family="Arial" font-size="13px" font-style="normal" font-weight="normal" text-decoration="none" x="45" y="249.5">+ServerName: string</text></g></g><g transform="translate(10,-182) scale(1,1)"><g><path fill="none" stroke="none"/><text fill="#000000" stroke="none" font-family="Arial" font-size="13px" font-style="normal" font-weight="normal" text-decoration="none" x="45" y="264.5">+Attributes: *attributes.Attributes</text></g></g><g transform="translate(10,-182) scale(1,1)"><rect fill="#C0C0C0" stroke="none" x="15" y="351" width="273.240234375" height="87" opacity="0.2"/></g><g transform="translate(10,-182) scale(1,1)"><rect fill="#ffffff" stroke="none" x="8" y="344" width="273.240234375" height="87"/></g><g transform="translate(10,-182) scale(1,1)"><path fill="none" stroke="#000000" d="M 8 344 L 281.240234375 344 L 281.240234375 431 L 8 431 L 8 344 Z Z" stroke-miterlimit="10"/></g><g transform="translate(10,-182) scale(1,1)"><path fill="none" stroke="#000000" d="M 8 369 L 281.240234375 369" stroke-miterlimit="10"/></g><g transform="translate(10,-182) scale(1,1)"><path fill="none" stroke="#000000" d="M 8 422 L 281.240234375 422" stroke-miterlimit="10"/></g><g transform="translate(10,-182) scale(1,1)"><g><path fill="none" stroke="none"/><text fill="#000000" stroke="none" font-family="Arial" font-size="13px" font-style="normal" font-weight="bold" text-decoration="none" x="129.44287109375" y="363.5">State</text></g></g><g transform="translate(10,-182) scale(1,1)"><g><path fill="none" stroke="none"/><text fill="#000000" stroke="none" font-family="Arial" font-size="13px" font-style="normal" font-weight="normal" text-decoration="none" x="13" y="386.5">+Addresses: Address[0..*]</text></g></g><g transform="translate(10,-182) scale(1,1)"><g><path fill="none" stroke="none"/><text fill="#000000" stroke="none" font-family="Arial" font-size="13px" font-style="normal" font-weight="normal" text-decoration="none" x="13" y="401.5">+ServiceConfig: *serviceconfig.ParseResult</text></g></g><g transform="translate(10,-182) scale(1,1)"><g><path fill="none" stroke="none"/><text fill="#000000" stroke="none" font-family="Arial" font-size="13px" font-style="normal" font-weight="normal" text-decoration="none" x="13" y="416.5">+Attributes: *attributes.Attributes</text></g></g><g transform="translate(10,-182) scale(1,1)"><path fill="none" stroke="#000000" d="M 148 280 L 145 343" stroke-miterlimit="10"/></g><g transform="translate(10,-182) scale(1,1)"><path fill="#FFFFFF" stroke="none" d="M 141.27863598639388 332.6486015496341 L 145 343 L 149.68814230973317 333.0490542316979 L 146.04643328713988 321.0249009700624"/></g><g transform="translate(10,-182) scale(1,1)"><path fill="none" stroke="#000000" d="M 141.27863598639388 332.6486015496341 L 145 343 L 149.68814230973317 333.0490542316979 L 146.04643328713988 321.0249009700624 L 141.27863598639388 332.6486015496341" stroke-miterlimit="10"/></g><g transform="translate(10,-182) scale(1,1)"><path fill="none" stroke="#000000" d="M 234.13472307097769 472.0339143850875 A 19 19 0 0 1 231.86527692902231 509.9660856149125" stroke-miterlimit="10"/></g><g transform="translate(10,-182) scale(1,1)"><path fill="none" stroke="#000000" d="M 0 535 L 466.107421875 535" stroke-miterlimit="10"/></g><g transform="translate(10,-182) scale(1,1)"><g><path fill="none" stroke="none"/><text fill="#000000" stroke="none" font-family="Arial" font-size="13px" font-style="normal" font-weight="bold" text-decoration="none" x="200.896484375" y="529.5">ClientConn</text></g></g><g transform="translate(10,-182) scale(1,1)"><g><path fill="none" stroke="none"/><text fill="#000000" stroke="none" font-family="Arial" font-size="13px" font-style="normal" font-weight="normal" text-decoration="none" x="5" y="552.5">+UpdateState(State)</text></g></g><g transform="translate(10,-182) scale(1,1)"><g><path fill="none" stroke="none"/><text fill="#000000" stroke="none" font-family="Arial" font-size="13px" font-style="normal" font-weight="normal" text-decoration="none" x="5" y="567.5">+ReportError()</text></g></g><g transform="translate(10,-182) scale(1,1)"><g><path fill="none" stroke="none"/><text fill="#000000" stroke="none" font-family="Arial" font-size="13px" font-style="normal" font-weight="normal" text-decoration="none" x="5" y="582.5">+ParseServiceConfig(serviceConfigJson string): *serviceconfig.ParseResult</text></g></g><g transform="translate(10,-182) scale(1,1)"><path fill="none" stroke="#000000" d="M 768.3846153846154 623.4230769230769 A 11.5 11.5 0 0 1 789.6153846153846 614.5769230769231" stroke-miterlimit="10"/></g><g transform="translate(10,-182) scale(1,1)"><path fill="none" stroke="#000000" d="M 664 656 L 894.6220703125 656" stroke-miterlimit="10"/></g><g transform="translate(10,-182) scale(1,1)"><g><path fill="none" stroke="none"/><text fill="#000000" stroke="none" font-family="Arial" font-size="13px" font-style="normal" font-weight="bold" text-decoration="none" x="753.663330078125" y="650.5">Resolver</text></g></g><g transform="translate(10,-182) scale(1,1)"><g><path fill="none" stroke="none"/><text fill="#000000" stroke="none" font-family="Arial" font-size="13px" font-style="normal" font-weight="normal" text-decoration="none" x="669" y="673.5">+ResolveNow(ResolveNowOptions)</text></g></g><g transform="translate(10,-182) scale(1,1)"><g><path fill="none" stroke="none"/><text fill="#000000" stroke="none" font-family="Arial" font-size="13px" font-style="normal" font-weight="normal" text-decoration="none" x="669" y="688.5">+Close()</text></g></g><g transform="translate(10,-182) scale(1,1)"><rect fill="#C0C0C0" stroke="none" x="719" y="759" width="142.072265625" height="44" opacity="0.2"/></g><g transform="translate(10,-182) scale(1,1)"><rect fill="#ffffff" stroke="none" x="712" y="752" width="142.072265625" height="44"/></g><g transform="translate(10,-182) scale(1,1)"><path fill="none" stroke="#000000" d="M 712 752 L 854.072265625 752 L 854.072265625 796 L 712 796 L 712 752 Z Z" stroke-miterlimit="10"/></g><g transform="translate(10,-182) scale(1,1)"><path fill="none" stroke="#000000" d="M 712 777 L 854.072265625 777" stroke-miterlimit="10"/></g><g transform="translate(10,-182) scale(1,1)"><path fill="none" stroke="#000000" d="M 712 787 L 854.072265625 787" stroke-miterlimit="10"/></g><g transform="translate(10,-182) scale(1,1)"><g><path fill="none" stroke="none"/><text fill="#000000" stroke="none" font-family="Arial" font-size="13px" font-style="normal" font-weight="bold" text-decoration="none" x="724.14892578125" y="771.5">ResolveNowOptions</text></g></g><g transform="translate(10,-182) scale(1,1)"><path fill="#C0C0C0" stroke="none" d="M 753.407958984375 450.5 C 753.407958984375 444.1487248 758.556683784375 439 764.907958984375 439 C 771.259234184375 439 776.407958984375 444.1487248 776.407958984375 450.5 C 776.407958984375 456.8512752 771.259234184375 462 764.907958984375 462 C 758.556683784375 462 753.407958984375 456.8512752 753.407958984375 450.5 Z" opacity="0.2"/></g><g transform="translate(10,-182) scale(1,1)"><path fill="#ffffff" stroke="none" d="M 746.407958984375 443.5 C 746.407958984375 437.1487248 751.556683784375 432 757.907958984375 432 C 764.259234184375 432 769.407958984375 437.1487248 769.407958984375 443.5 C 769.407958984375 449.8512752 764.259234184375 455 757.907958984375 455 C 751.556683784375 455 746.407958984375 449.8512752 746.407958984375 443.5 Z"/></g><g transform="translate(10,-182) scale(1,1)"><path fill="none" stroke="#000000" d="M 746.407958984375 443.5 C 746.407958984375 437.1487248 751.556683784375 432 757.907958984375 432 C 764.259234184375 432 769.407958984375 437.1487248 769.407958984375 443.5 C 769.407958984375 449.8512752 764.259234184375 455 757.907958984375 455 C 751.556683784375 455 746.407958984375 449.8512752 746.407958984375 443.5 Z" stroke-miterlimit="10"/></g><g transform="translate(10,-182) scale(1,1)"><path fill="none" stroke="#000000" d="M 552 480 L 963.81591796875 480" stroke-miterlimit="10"/></g><g transform="translate(10,-182) scale(1,1)"><g><path fill="none" stroke="none"/><text fill="#000000" stroke="none" font-family="Arial" font-size="13px" font-style="normal" font-weight="bold" text-decoration="none" x="737.6748046875" y="474.5">Builder</text></g></g><g transform="translate(10,-182) scale(1,1)"><g><path fill="none" stroke="none"/><text fill="#000000" stroke="none" font-family="Arial" font-size="13px" font-style="normal" font-weight="normal" text-decoration="none" x="557" y="497.5">+Build(target Target, cc ClientConn, opts BuildOptions): Resolver</text></g></g><g transform="translate(10,-182) scale(1,1)"><g><path fill="none" stroke="none"/><text fill="#000000" stroke="none" font-family="Arial" font-size="13px" font-style="normal" font-weight="normal" text-decoration="none" x="557" y="512.5">+Scheme(): string</text></g></g><g transform="translate(10,-182) scale(1,1)"><rect fill="#C0C0C0" stroke="none" x="855" y="335" width="77.0595703125" height="87" opacity="0.2"/></g><g transform="translate(10,-182) scale(1,1)"><rect fill="#ffffff" stroke="none" x="848" y="328" width="77.0595703125" height="87"/></g><g transform="translate(10,-182) scale(1,1)"><path fill="none" stroke="#000000" d="M 848 328 L 925.0595703125 328 L 925.0595703125 415 L 848 415 L 848 328 Z Z" stroke-miterlimit="10"/></g><g transform="translate(10,-182) scale(1,1)"><path fill="none" stroke="#000000" d="M 848 353 L 925.0595703125 353" stroke-miterlimit="10"/></g><g transform="translate(10,-182) scale(1,1)"><path fill="none" stroke="#000000" d="M 848 406 L 925.0595703125 406" stroke-miterlimit="10"/></g><g transform="translate(10,-182) scale(1,1)"><g><path fill="none" stroke="none"/><text fill="#000000" stroke="none" font-family="Arial" font-size="13px" font-style="normal" font-weight="bold" text-decoration="none" x="868.46435546875" y="347.5">Target</text></g></g><g transform="translate(10,-182) scale(1,1)"><g><path fill="none" stroke="none"/><text fill="#000000" stroke="none" font-family="Arial" font-size="13px" font-style="normal" font-weight="normal" text-decoration="none" x="853" y="370.5">+Scheme</text></g></g><g transform="translate(10,-182) scale(1,1)"><g><path fill="none" stroke="none"/><text fill="#000000" stroke="none" font-family="Arial" font-size="13px" font-style="normal" font-weight="normal" text-decoration="none" x="853" y="385.5">+Authority</text></g></g><g transform="translate(10,-182) scale(1,1)"><g><path fill="none" stroke="none"/><text fill="#000000" stroke="none" font-family="Arial" font-size="13px" font-style="normal" font-weight="normal" text-decoration="none" x="853" y="400.5">+Endpoint</text></g></g><g transform="translate(10,-182) scale(1,1)"><path fill="none" stroke="#000000" d="M 551 497 L 252.0537109375 492.1399656116453" stroke-miterlimit="10"/></g><g transform="translate(10,-182) scale(1,1)"><path fill="none" stroke="#000000" d="M 196 471 L 172 432" stroke-miterlimit="10" stroke-dasharray="3"/></g><g transform="translate(10,-182) scale(1,1)"><path fill="none" stroke="#000000" d="M 180.91130253697094 438.4489291432435 L 172 432 L 173.74116092451803 442.86132398167604" stroke-miterlimit="10"/></g><g transform="translate(10,-182) scale(1,1)"><path fill="none" stroke="#000000" d="M 763 519 L 774.4166666666666 608" stroke-miterlimit="10"/></g><g transform="translate(10,-182) scale(1,1)"><path fill="none" stroke="#000000" d="M 812 431 L 847 402" stroke-miterlimit="10" stroke-dasharray="3"/></g><g transform="translate(10,-182) scale(1,1)"><path fill="none" stroke="#000000" d="M 841.8602687734784 411.72538754596025 L 847 402 L 836.4887737128347 405.2425486796661" stroke-miterlimit="10"/></g><g transform="translate(10,-182) scale(1,1)"><path fill="none" stroke="#000000" d="M 780 695 L 782 751" stroke-miterlimit="10" stroke-dasharray="3"/></g><g transform="translate(10,-182) scale(1,1)"><path fill="none" stroke="#000000" d="M 777.4304429001526 740.9940443779101 L 782 751 L 785.8441142603102 740.6935561150473" stroke-miterlimit="10"/></g><g transform="translate(10,-182) scale(1,1)"><path fill="none" stroke="#000000" d="M 467 582 L 663 625" stroke-miterlimit="10"/></g></g></svg>